<?xml version="1.0" standalone="no"?>
<!DOCTYPE svg PUBLIC "-//W3C//DTD SVG 20010904//EN"
 "http://www.w3.org/TR/2001/REC-SVG-20010904/DTD/svg10.dtd">
<svg version="1.0" xmlns="http://www.w3.org/2000/svg"
 width="316.000000pt" height="316.000000pt" viewBox="0 0 316.000000 316.000000"
 preserveAspectRatio="xMidYMid meet">
<metadata>
Created by potrace 1.14, written by Peter Selinger 2001-2017
</metadata>
<g transform="translate(0.000000,316.000000) scale(0.100000,-0.100000)"
fill="#000000" stroke="none">
<path d="M1504 2991 c5 -7 -5 -11 -26 -12 -57 -2 -102 -9 -138 -21 -19 -6 -48
-12 -65 -13 -16 -1 -39 -7 -51 -13 -19 -10 -96 -40 -119 -46 -5 -1 -46 -19
-89 -39 -43 -20 -80 -37 -82 -37 -8 0 -184 -117 -224 -149 -82 -66 -215 -207
-247 -262 -10 -16 -20 -29 -24 -29 -4 0 -17 -19 -29 -42 -12 -24 -25 -45 -29
-48 -10 -8 -79 -154 -86 -183 -4 -15 -10 -27 -14 -27 -4 0 -8 -6 -9 -12 0 -7
-13 -56 -27 -108 -29 -100 -32 -118 -39 -190 -3 -25 -6 -45 -7 -45 -1 0 -3
-27 -5 -60 -1 -33 -3 -62 -4 -65 -2 -6 0 -67 5 -184 2 -49 9 -94 15 -100 5 -5
10 -15 10 -20 0 -6 -5 -4 -11 4 -9 12 -9 11 -4 -5 8 -22 16 -69 16 -98 0 -9 4
-17 10 -17 5 0 8 -3 7 -7 -1 -5 4 -28 12 -53 7 -25 13 -51 13 -57 0 -7 4 -13
9 -13 5 0 7 -4 3 -9 -3 -5 -1 -12 3 -15 5 -3 15 -26 22 -51 7 -26 17 -42 23
-38 6 4 7 1 3 -6 -5 -7 0 -21 9 -31 10 -11 15 -28 12 -39 -3 -13 -1 -18 8 -15
10 4 23 -18 23 -42 1 -3 10 -14 22 -24 12 -10 22 -27 23 -38 0 -12 5 -19 9
-16 4 3 15 -10 24 -28 18 -37 37 -58 147 -168 93 -93 147 -142 147 -132 0 4 5
-1 11 -10 5 -10 17 -18 25 -18 8 0 12 -4 9 -10 -3 -5 0 -7 8 -4 8 3 18 0 22
-5 3 -6 11 -9 16 -5 5 3 8 2 7 -3 -2 -4 2 -10 7 -12 6 -2 22 -12 37 -22 14
-10 33 -19 41 -19 8 0 20 -6 26 -13 6 -8 37 -22 68 -33 32 -10 60 -21 63 -24
12 -12 111 -42 140 -42 8 0 31 -6 51 -13 20 -8 40 -11 43 -7 4 3 11 0 16 -8 6
-8 10 -10 10 -4 0 7 15 9 45 4 69 -10 342 -3 375 10 3 1 8 2 11 2 3 -1 39 8
80 19 41 11 81 21 89 21 8 0 21 5 28 11 6 5 12 7 12 3 0 -4 18 3 40 14 22 11
51 21 64 22 14 1 23 5 20 9 -4 7 24 20 55 25 8 2 17 7 20 12 5 7 32 20 51 24
3 1 10 6 17 12 34 30 43 36 43 29 0 -4 6 -1 13 7 18 22 81 65 72 49 -5 -8 8 3
29 24 21 23 42 37 51 33 9 -3 12 0 8 10 -3 9 1 14 12 14 9 0 13 5 10 10 -3 6
-2 10 2 10 5 0 25 16 45 36 24 23 42 33 50 28 10 -6 9 -3 -1 9 -12 15 -11 17
4 17 10 0 16 3 13 6 -9 8 51 66 62 59 5 -3 7 1 4 9 -5 14 0 23 36 65 8 9 22
30 30 46 8 17 23 37 32 46 10 9 15 19 11 23 -3 3 2 6 13 7 11 0 14 3 6 6 -10
4 -9 9 5 20 10 8 11 11 3 7 -13 -7 -13 -5 -1 9 7 9 17 15 21 12 5 -3 6 4 3 15
-3 12 0 20 8 20 7 0 9 3 6 7 -4 3 1 15 10 26 10 11 12 17 4 12 -9 -5 -7 1 4
19 10 14 14 26 10 26 -4 0 -2 7 5 15 7 8 17 12 23 8 6 -3 7 -1 3 6 -4 6 -13 9
-19 5 -7 -3 -3 3 8 13 11 10 20 28 19 41 -1 13 4 29 10 35 6 7 11 23 10 37 0
14 6 43 14 65 17 49 27 109 34 205 0 8 5 21 11 28 6 8 6 12 -2 12 -7 0 -10 4
-7 9 5 8 10 127 7 141 -1 3 -4 39 -6 80 -2 41 -9 98 -16 125 -6 28 -12 57 -14
65 -1 8 -4 22 -7 30 -3 8 -12 38 -21 66 -10 29 -17 59 -17 68 0 9 -4 16 -10
16 -5 0 -10 8 -10 18 0 9 -7 30 -15 46 -8 15 -15 34 -15 40 0 6 -8 23 -17 36
-10 14 -18 31 -20 39 -1 8 -6 17 -12 20 -5 3 -11 13 -13 21 -2 8 -13 26 -25
40 -13 13 -23 30 -23 37 0 7 -8 16 -17 22 -10 5 -17 12 -15 15 2 6 -35 52 -80
98 -16 15 -28 30 -28 33 0 12 -97 98 -175 156 -44 32 -85 63 -92 69 -7 5 -15
10 -19 10 -19 0 -73 34 -67 43 4 6 1 7 -6 2 -13 -7 -81 23 -81 37 0 4 -9 5
-20 3 -11 -2 -20 0 -20 4 0 8 -100 38 -112 33 -5 -1 -8 4 -8 11 0 9 -10 13
-27 12 -15 0 -50 5 -78 12 -75 20 -358 36 -348 21 6 -12 -15 -10 -39 3 -15 8
-19 8 -14 0z"/>
</g>
</svg>
